<svg width="258" height="56" viewBox="0 0 258 56" fill="none" xmlns="http://www.w3.org/2000/svg">
<path d="M26.6737 52.8048C40.9756 52.8048 52.5634 41.2556 52.5634 27.0056C52.5634 12.7608 40.9756 1.21167 26.6737 1.21167C12.3753 1.21167 0.784058 12.7608 0.784058 27.0056C0.784058 41.2556 12.3753 52.8048 26.6737 52.8048Z" fill="white"/>
<path d="M22.6943 31.3065H32.2224L35.0058 33.1041H22.2739L16.5598 50.7037C10.2462 48.2662 4.40268 42.6136 1.9528 36.261C-0.660296 30.1064 -0.660328 22.3732 2.00953 16.1939C4.51264 9.83773 10.5247 4.10029 16.9235 1.74236C21.9581 -0.334515 28.6957 -0.553692 34.0354 1.07953C40.1628 2.82764 45.9478 7.20407 49.3131 12.9168C53.074 19.181 54.1295 27.1404 51.8446 34.2919C50.4006 39.036 47.422 43.5787 43.3276 46.8292L36.2937 35.1527L46.0844 40.5915C46.1393 40.5915 46.1679 40.5314 46.1394 40.4748L33.3151 29.4435L49.9002 31.9658C49.957 31.9658 49.9799 31.9393 49.9799 31.9111L49.8735 31.8279L34.234 26.3644L50.4855 22.4528C50.5406 22.4528 50.5406 22.4016 50.5122 22.3733L33.842 23.4551L46.8951 13.608C46.9235 13.555 46.8099 13.5285 46.7815 13.5833L32.1195 20.9911L40.2142 6.7623C40.2142 6.73939 40.2142 6.67924 40.1628 6.70922L29.5863 19.075L31.6157 2.82767C31.6157 2.79755 31.559 2.7711 31.5039 2.79755L26.6396 18.5748L22.3802 2.32562C22.3518 2.29904 22.2934 2.26906 22.2667 2.32562L23.4393 19.181L13.395 6.15591C13.3612 6.12579 13.3365 6.15596 13.3081 6.1824L20.9061 20.5968L6.54387 12.7772C6.51719 12.7772 6.46227 12.8073 6.46227 12.8319L19.2333 23.2834L2.93027 21.5689C2.8718 21.599 2.8718 21.6484 2.93027 21.6749L18.7365 26.2829L3.01364 30.8857C2.98341 30.9087 2.98341 30.967 3.01364 30.9917L19.2333 29.1093L6.48887 39.8949C6.46218 39.8949 6.43394 39.9497 6.48887 39.9815L6.65916 39.9249L16.8667 34.5992L19.2634 30.8025H21.9865L20.0972 29.4716L26.4126 19.377L22.6872 31.301L22.6943 31.3067" fill="#231F20"/>
<path d="M69.7211 44.5958H56.998L67.1861 8.35913H93.2673L90.7819 16.9583H77.4717L75.7651 23.127H89.0753L86.8313 31.0421H73.5228L69.7211 44.5958V44.5958Z" fill="#231F20"/>
<path d="M99.1642 44.5958H86.5884L94.0463 18.1231H106.622L99.1642 44.5958ZM107.305 15.5972H94.7293L96.7764 8.35913H109.352L107.305 15.5972Z" fill="#231F20"/>
<path d="M131.792 44.5958H119.46L120.336 41.6334C117.849 43.7209 115.316 45.2268 111.269 45.2268C107.173 45.2268 104.592 43.2825 104.592 39.1535C104.592 34.5896 106.396 27.7881 109.076 23.028C111.026 19.4823 114.535 17.637 118.679 17.637C122.236 17.637 124.869 19.1925 125.894 21.1333L129.405 8.35913H141.98L131.792 44.5958V44.5958ZM122.335 25.9905C121.212 25.9905 120.093 26.3334 119.46 27.8853C118.532 30.1195 117.703 32.306 117.703 34.4907C117.703 35.5123 118.436 36.3854 119.653 36.3854C120.629 36.3854 121.262 36.0939 121.798 35.7563L124.335 27.0598C123.895 26.4271 123.114 25.9905 122.335 25.9905Z" fill="#231F20"/>
<path d="M167.305 33.0343H149.952C149.608 34.4413 149.269 35.4152 149.269 36.5305C149.269 37.0661 149.366 38.4254 151.121 38.4254C152.875 38.4254 153.656 37.7448 154.387 35.1713H166.719C165.16 42.7011 156.191 45.2729 150.683 45.2729C143.223 45.2729 137.422 44.2052 137.422 37.0661C137.422 33.1315 139.42 26.6216 142.054 23.1748C145.222 19.0458 150.731 17.4939 155.802 17.4939C163.601 17.4939 168.669 19.0954 168.669 25.699C168.669 27.3039 167.988 30.8479 167.305 33.0343V33.0343ZM154.727 24.147C153.168 24.147 152.096 25.2146 151.414 27.8854H156.579C156.727 27.3516 156.922 26.5261 156.922 26.0401C156.922 24.5836 156.044 24.147 154.727 24.147Z" fill="#231F20"/>
<path d="M179.945 44.5958H167.367L177.555 8.35913H190.133L179.945 44.5958Z" fill="#231F20"/>
<path d="M196.562 44.5958H183.983L191.442 18.1231H204.02L196.562 44.5958V44.5958ZM204.701 15.5972H192.125L194.173 8.35913H206.75L204.701 15.5972Z" fill="#231F20"/>
<path d="M227.313 18.1227L228.408 24.097H218.782L215.954 34.1527C215.711 34.9287 215.514 35.899 215.514 36.5318C215.514 37.6966 216.004 38.0873 217.709 38.0873H220.391L218.537 44.5954H207.325C203.62 44.5954 202.206 42.7979 202.206 40.0758C202.206 38.9623 202.353 37.7444 202.743 36.3851L209.568 12.2456H222.145L220.487 18.1227H227.313" fill="#231F20"/>
<path d="M56.7408 48.6656L59.8754 48.6614L57.8779 55.1784L54.7521 55.1798L56.7408 48.6646V48.6656Z" fill="#231F20"/>
<path d="M67.6826 48.6715L72.2684 48.6686L73.4445 53.0151H73.4765L74.8034 48.6669L77.5247 48.6641L75.513 55.1669L71.1259 55.1829L69.854 50.5395H69.8327L68.4419 55.1741L65.7188 55.1755L67.6826 48.6726V48.6715Z" fill="#231F20"/>
<path d="M83.4686 48.6743L86.9208 48.6728L87.524 52.7683L90.6817 48.6693L93.8766 48.665L88.6097 55.1697L84.7778 55.1725L83.4686 48.6732V48.6743Z" fill="#231F20"/>
<path d="M99.8872 48.6763L107.019 48.6707L106.616 49.9874L102.516 49.9917L102.119 51.328L105.963 51.3266L105.578 52.5816L101.736 52.5829L101.338 53.8732L105.481 53.869L105.064 55.1876L97.8932 55.1933L99.8872 48.6763V48.6763Z" fill="#231F20"/>
<path d="M130.516 50.2626L128.074 50.264L128.558 48.6838L136.573 48.6768L136.09 50.257L133.649 50.2598L132.152 55.163L129.021 55.1672L130.516 50.2623V50.2626Z" fill="#231F20"/>
<path d="M143.059 48.6677L147.808 48.6649L148.038 53.0131H148.058L150.889 48.6632L155.661 48.6575L153.68 55.1745L150.774 55.1773L152.264 50.2688H152.241L148.713 55.179L145.684 55.1833L145.257 50.2748H145.225L143.736 55.1691L141.077 55.1706L143.059 48.6677V48.6677Z" fill="#231F20"/>
<path d="M175.618 48.6716L180.2 48.6687L181.38 53.0152H181.41L182.737 48.6652L185.457 48.6638L183.466 55.1825L179.022 55.1698L177.788 50.5388H177.768L176.343 55.1716L173.622 55.1744L175.618 48.6716V48.6716Z" fill="#231F20"/>
<path d="M192.974 50.2531L190.529 50.2546L191.013 48.6726L199.03 48.667L198.547 50.2472L196.105 50.2499L194.609 55.1691L191.474 55.1733L192.974 50.2524V50.2531Z" fill="#231F20"/>
<path d="M116.627 50.6453C116.558 50.5729 116.555 50.449 116.583 50.3483C116.686 50.0177 117.101 49.8003 117.763 49.8003C118.153 49.7989 118.753 49.8428 118.925 49.9789C119.107 50.1114 119.166 50.3111 119.102 50.5073H121.878C122.205 49.3443 121.47 48.5949 118.336 48.5967C115.357 48.6009 113.668 49.2365 113.234 50.6559C113.122 51.0271 113.108 51.4831 113.415 51.7906C114.183 52.5507 117.646 52.8529 117.938 53.263C117.997 53.3462 118.02 53.4451 117.984 53.5617C117.825 54.0849 117.081 54.2192 116.432 54.2192C116.019 54.2192 115.483 54.1308 115.329 53.9611C115.183 53.7897 115.183 53.5281 115.267 53.3602L112.361 53.3659C112.068 54.3752 111.944 55.425 115.985 55.4233C119.373 55.419 120.926 54.5926 121.316 53.3075C121.509 52.6783 121.317 52.3301 121.098 52.1056C120.346 51.3332 116.991 51.0486 116.627 50.6456" fill="#231F20"/>
<path d="M162.042 48.6781L169.173 48.6724L168.772 49.9892L164.671 49.992L164.274 51.3283L168.118 51.3269L167.733 52.5819L163.89 52.5832L163.493 53.8753L167.635 53.8725L167.218 55.1893L160.048 55.1964L162.042 48.6777V48.6781Z" fill="#231F20"/>
<path d="M244.291 18.1228L237.467 32.7918L237.662 18.1228H224.939L227.376 44.5955C227.064 46.1456 226.55 47.0188 225.574 47.4501C224.506 47.9238 222.092 47.8407 221.242 47.7929L221.087 47.8015L219.083 54.9937L227.667 55.0021C232.737 55.0021 235.224 52.4621 238.831 46.8289L257.162 18.1221H244.291" fill="#231F20"/>
<path d="M207.162 50.63C207.093 50.5557 207.091 50.432 207.118 50.333C207.223 50.0007 207.636 49.7833 208.298 49.7833C208.688 49.7833 209.287 49.8274 209.46 49.9636C209.644 50.0944 209.703 50.2959 209.637 50.4921H212.413C212.741 49.329 212.005 48.5778 208.871 48.5813C205.892 48.5841 204.203 49.2212 203.77 50.6406C203.657 51.01 203.643 51.4677 203.949 51.7735C204.718 52.5354 208.18 52.8377 208.473 53.2477C208.533 53.329 208.555 53.4298 208.519 53.5464C208.361 54.0696 207.616 54.2022 206.969 54.2039C206.554 54.2039 206.018 54.1156 205.864 53.9441C205.72 53.7727 205.72 53.5128 205.802 53.3449L202.896 53.3478C202.603 54.3588 202.479 55.4087 206.52 55.407C209.908 55.4013 211.461 54.5762 211.853 53.2894C212.044 52.6602 211.854 52.312 211.633 52.0892C210.881 51.3168 207.526 51.0323 207.162 50.6293" fill="#231F20"/>
<path d="M246.274 44.1088C245.014 44.1088 243.996 43.0925 243.996 41.8393C243.996 40.5861 245.014 39.5697 246.274 39.5697C247.532 39.5697 248.552 40.5861 248.552 41.8393C248.552 43.0925 247.532 44.1088 246.274 44.1088ZM246.274 39.0801C244.747 39.0801 243.505 40.3192 243.505 41.8393C243.505 43.3594 244.747 44.5984 246.274 44.5984C247.798 44.5984 249.041 43.3594 249.041 41.8393C249.041 40.3192 247.798 39.0801 246.274 39.0801Z" fill="#231F20"/>
<path d="M245.799 41.649V40.8518H246.178C246.503 40.8447 246.858 40.866 246.858 41.2478C246.858 41.6296 246.503 41.649 246.178 41.649H245.799ZM247.383 41.269C247.383 40.7193 247.062 40.4099 246.373 40.4099H245.298V43.2557H245.799V42.0909H246.178L246.893 43.2557H247.443L246.696 42.0503C247.088 42.0026 247.383 41.7622 247.383 41.269" fill="#231F20"/>
<path d="M244.272 18.1871L237.468 32.8066L237.664 18.1871H224.985L227.413 44.5679C227.103 46.1128 226.59 46.9823 225.618 47.4136C224.554 47.8838 222.148 47.8008 221.3 47.7531L221.148 47.7615L219.148 54.9307L227.703 54.9378C232.757 54.9378 235.235 52.4084 238.829 46.7946L257.096 18.1868H244.272V18.1871Z" fill="#231F20"/>
</svg>
